# xmcd CD database file
#
# Track frame offsets:
#	150
#	7814
#	22113
#	44123
#	67009
#	92194
#	110622
#	130074
#	157773
#	165029
#	188812
#	207353
#
# Disc length: 2853 seconds
#
# Revision: 0
# Processed by: cddbd v1.5PL3 Copyright (c) Steve Scherf et al.
# Submitted via: CDex 1.51
#
DISCID=980b230c
DTITLE=EVIL MASQUERADE - Welcome To The Show
DYEAR=2004
DGENRE=Hard Rock
TTITLE0=Intro (Ride Of The Valkyries/Grand Opening)
TTITLE1=Welcome To The Show
TTITLE2=The Wibd Will Rise
TTITLE3=Oh Harlequin
TTITLE4=Surprises In The Dark
TTITLE5=But You Were Smiling...
TTITLE6=Children Of The Light
TTITLE7=Lucy The Evil
TTITLE8=Badinerie
TTITLE9=Deliver Us
TTITLE10=Evil Masquerade
TTITLE11=Kimigayo Wa Chiyoni
EXTD=YEAR: 2004
EXTT0=
EXTT1=
EXTT2=
EXTT3=
EXTT4=
EXTT5=
EXTT6=
EXTT7=
EXTT8=
EXTT9=
EXTT10=
EXTT11=
PLAYORDER=
